<svg width="25"  viewBox="0 0 32 15" fill="none" xmlns="http://www.w3.org/2000/svg">
<path d="M1.1057 8.03758C0.77118 8.03758 0.5 8.30876 0.5 8.64328V8.64328C0.5 8.97779 0.77118 9.24897 1.1057 9.24897H30.8943C31.2288 9.24897 31.5 8.97779 31.5 8.64328V8.64328C31.5 8.30876 31.2288 8.03758 30.8943 8.03758H6.29091C5.73862 8.03758 5.29091 7.58986 5.29091 7.03758V2.36349C5.29091 2.11696 5.39096 1.87818 5.62678 1.8063C6.14775 1.64751 7.11818 1.61581 7.94637 1.99382C8.23971 2.12771 8.39091 2.44107 8.39091 2.76353V4.40339V5.3705C8.39091 5.94939 8.88094 6.40735 9.45852 6.36821L10.317 6.31004C10.5303 6.29558 10.7334 6.21311 10.8965 6.07473L13.6961 3.69851C13.8889 3.53488 14 3.29478 14 3.04191V3.04191C14 2.49492 13.4967 2.08651 12.9614 2.19914L11.2928 2.55026C10.9003 2.63285 10.5256 2.45586 10.3266 2.10758C9.9662 1.4768 9.3337 0.575055 8.39091 0.500007C7.03818 0.392328 5.38485 0.455141 4.72727 0.500007C4.11544 0.541752 2.83675 0.832082 2.2986 1.65289C2.2187 1.77477 2.19091 1.92151 2.19091 2.06725V7.19212C2.19091 7.65906 1.81239 8.03758 1.34545 8.03758H1.1057Z" fill="#C4C4C4"/>
<path d="M3.20081 12.9555C3.4891 13.1391 3.66366 13.4572 3.66366 13.799V14.0001C3.66366 14.5523 4.11138 15.0001 4.66366 15.0001H7.70165C7.96183 15.0001 8.17275 14.7891 8.17275 14.529V14.529C8.17275 14.2688 8.38367 14.0579 8.64385 14.0579H22.9198C23.18 14.0579 23.3909 14.2688 23.3909 14.529V14.529C23.3909 14.7891 23.6019 15.0001 23.862 15.0001H26.6182C27.1705 15.0001 27.6182 14.5523 27.6182 14.0001V13.7446C27.6182 13.4331 27.7634 13.1393 28.011 12.9501L28.6345 12.4736C28.8821 12.2845 29.0273 11.9907 29.0273 11.6791V10.8853C29.0273 10.333 28.5796 9.88527 28.0273 9.88527H2.97275C2.42047 9.88527 1.97275 10.333 1.97275 10.8853V11.6247C1.97275 11.9665 2.14731 12.2846 2.4356 12.4682L3.20081 12.9555Z" fill="#C4C4C4"/>
</svg>
