<svg width="25" viewBox="0 0 31 15" fill="none" xmlns="http://www.w3.org/2000/svg">
<path d="M0 8.28431V15H2.72C3.27229 15 3.72 14.5523 3.72 14V13.6716C3.72 13.1193 4.16772 12.6716 4.72 12.6716H26.1808C26.7331 12.6716 27.1808 13.1193 27.1808 13.6716V14C27.1808 14.5523 27.6285 15 28.1808 15H30C30.5523 15 31 14.5523 31 14V5.84812C31 5.53056 30.8532 5.2305 30.5851 5.06034C27.973 3.4025 21.0347 0.963079 10.6229 2.37685C10.1336 2.44328 9.7712 2.86458 9.7712 3.35833V7.28431C9.7712 7.8366 9.32349 8.28431 8.7712 8.28431H3.1824C2.63012 8.28431 2.1824 7.8366 2.1824 7.28431V1C2.1824 0.447715 1.73469 0 1.1824 0H1C0.447715 0 0 0.447716 0 1V8.28431Z" fill="#C4C4C4"/>
<ellipse cx="6.5" cy="5" rx="2.5" ry="2" fill="#C4C4C4"/>
</svg>
