<?xml version="1.0" standalone="no"?>
<svg xmlns="http://www.w3.org/2000/svg" viewBox="0 0 109.224 36" width="109.224" height="36"><g fill="#68676d" color="#68676d" transform="translate(0 4) scale(1.1666667)"><svg width="24.0" height="24.0" x="0.0" y="0.0" viewBox="0 0 24 24"><g><rect x="2" y="6" width="1" height="1"></rect><rect y="6" width="1" height="1"></rect><rect x="4" y="6" width="1" height="1"></rect><rect y="16" width="1" height="1"></rect><polygon points="8,6 6,6 6,8 6,18 15,18 18,18 18,16 18,6  "></polygon><rect y="14" width="1" height="1"></rect><rect x="3" y="23" width="1" height="1"></rect><rect x="7" y="23" width="1" height="1"></rect><rect y="20" width="1" height="1"></rect><rect x="9" y="23" width="1" height="1"></rect><polygon points="1,23 1,22 0,22 0,24 2,24 2,23  "></polygon><rect x="5" y="23" width="1" height="1"></rect><rect x="17" y="23" width="1" height="1"></rect><rect x="17" y="21" width="1" height="1"></rect><rect x="17" y="19" width="1" height="1"></rect><rect x="13" y="23" width="1" height="1"></rect><rect x="11" y="23" width="1" height="1"></rect><rect x="15" y="23" width="1" height="1"></rect><rect y="18" width="1" height="1"></rect><rect y="8" width="1" height="1"></rect><rect y="10" width="1" height="1"></rect><rect y="12" width="1" height="1"></rect><rect x="6" y="2" width="1" height="1"></rect><rect x="19" y="17" width="1" height="1"></rect><rect x="23" y="11" width="1" height="1"></rect><rect x="23" y="13" width="1" height="1"></rect><rect x="23" y="17" width="1" height="1"></rect><rect x="21" y="17" width="1" height="1"></rect><rect x="23" y="7" width="1" height="1"></rect><rect x="6" y="4" width="1" height="1"></rect><rect x="23" y="9" width="1" height="1"></rect><rect x="23" y="5" width="1" height="1"></rect><rect x="6" width="1" height="1"></rect><rect x="23" y="15" width="1" height="1"></rect><rect x="12" width="1" height="1"></rect><rect x="16" width="1" height="1"></rect><polygon points="23,1 23,2 24,2 24,0 22,0 22,1  "></polygon><rect x="14" width="1" height="1"></rect><rect x="8" width="1" height="1"></rect><rect x="23" y="3" width="1" height="1"></rect><rect x="18" width="1" height="1"></rect><rect x="10" width="1" height="1"></rect><rect x="20" width="1" height="1"></rect></g></svg></g><path fill="#000000" fill-rule="nonzero" d="M4.70 17.21L4.70 17.21Q3.41 17.21 2.34 16.55Q1.27 15.89 0.64 14.80Q0 13.70 0 12.38L0 12.38L0 11.28Q0 11.16 0.12 11.16L0.12 11.16L2.81 11.16Q2.90 11.16 2.90 11.28L2.90 11.28L2.90 12.38Q2.90 13.18 3.43 13.74Q3.96 14.30 4.70 14.30L4.70 14.30Q5.45 14.30 5.98 13.73Q6.50 13.15 6.50 12.38L6.50 12.38Q6.50 11.50 5.35 10.85L5.35 10.85Q4.97 10.63 4.15 10.18Q3.34 9.72 2.62 9.31L2.62 9.31Q1.30 8.54 0.66 7.38Q0.02 6.22 0.02 4.75L0.02 4.75Q0.02 3.41 0.67 2.34Q1.32 1.27 2.39 0.65Q3.46 0.02 4.70 0.02L4.70 0.02Q5.98 0.02 7.04 0.66Q8.11 1.30 8.75 2.36Q9.38 3.43 9.38 4.75L9.38 4.75L9.38 6.72Q9.38 6.82 9.29 6.82L9.29 6.82L6.60 6.82Q6.50 6.82 6.50 6.72L6.50 6.72L6.48 4.75Q6.48 3.91 5.95 3.38Q5.42 2.86 4.70 2.86L4.70 2.86Q3.96 2.86 3.43 3.42Q2.90 3.98 2.90 4.75L2.90 4.75Q2.90 5.54 3.24 6.07Q3.58 6.60 4.46 7.08L4.46 7.08Q4.58 7.15 4.93 7.33Q5.28 7.51 5.69 7.74Q6.10 7.97 6.42 8.14Q6.74 8.30 6.82 8.35L6.82 8.35Q8.02 9.02 8.71 10.00Q9.41 10.97 9.41 12.38L9.41 12.38Q9.41 13.75 8.77 14.84Q8.14 15.94 7.07 16.57Q6 17.21 4.70 17.21ZM18.98 18.50L18.98 18.50L17.33 16.82Q16.46 17.21 15.53 17.21L15.53 17.21Q14.26 17.21 13.18 16.56Q12.10 15.91 11.45 14.81Q10.80 13.70 10.80 12.38L10.80 12.38L10.82 4.78Q10.82 3.50 11.45 2.41Q12.07 1.32 13.14 0.66Q14.21 0 15.53 0L15.53 0Q16.80 0 17.87 0.64Q18.94 1.27 19.57 2.35Q20.21 3.43 20.21 4.78L20.21 4.78L20.23 12.38Q20.23 13.08 20.04 13.73Q19.85 14.38 19.54 14.93L19.54 14.93L21.02 16.44Q21.12 16.54 21.05 16.61L21.05 16.61L19.15 18.50Q19.06 18.58 18.98 18.50ZM15.53 14.30L15.53 14.30Q16.34 14.30 16.84 13.69Q17.33 13.08 17.33 12.38L17.33 12.38L17.30 4.78Q17.30 4.01 16.80 3.44Q16.30 2.88 15.53 2.88L15.53 2.88Q14.71 2.88 14.22 3.46Q13.73 4.03 13.73 4.78L13.73 4.78L13.73 12.38Q13.73 13.25 14.29 13.78Q14.86 14.30 15.53 14.30ZM26.83 17.21L26.83 17.21Q25.56 17.21 24.48 16.55Q23.40 15.89 22.76 14.78Q22.13 13.68 22.13 12.36L22.13 12.36L22.18 0.36Q22.18 0.26 22.27 0.26L22.27 0.26L24.96 0.26Q25.06 0.26 25.06 0.36L25.06 0.36L25.06 12.36Q25.06 13.18 25.57 13.74Q26.09 14.30 26.83 14.30L26.83 14.30Q27.60 14.30 28.12 13.74Q28.63 13.18 28.63 12.36L28.63 12.36L28.63 0.36Q28.63 0.26 28.73 0.26L28.73 0.26L31.42 0.26Q31.51 0.26 31.51 0.36L31.51 0.36L31.56 12.36Q31.56 13.70 30.92 14.81Q30.29 15.91 29.22 16.56Q28.15 17.21 26.83 17.21ZM32.26 16.85L32.26 16.85L35.23 0.36Q35.26 0.26 35.35 0.26L35.35 0.26L38.83 0.26Q38.93 0.26 38.95 0.36L38.95 0.36L41.81 16.85Q41.83 16.97 41.71 16.97L41.71 16.97L39.05 16.97Q38.95 16.97 38.93 16.85L38.93 16.85L38.66 15.10L35.40 15.10L35.14 16.85Q35.11 16.97 35.02 16.97L35.02 16.97L32.35 16.97Q32.26 16.97 32.26 16.85ZM36.96 5.78L35.88 12.53L38.18 12.53L37.20 5.78L37.06 4.90L36.96 5.78ZM46.13 16.97L43.42 16.97Q43.32 16.97 43.32 16.85L43.32 16.85L43.37 0.36Q43.37 0.26 43.46 0.26L43.46 0.26L48.31 0.26Q49.61 0.26 50.70 0.90Q51.79 1.54 52.44 2.60Q53.09 3.67 53.09 5.02L53.09 5.02Q53.09 5.90 52.82 6.61Q52.56 7.32 52.20 7.81Q51.84 8.30 51.55 8.54L51.55 8.54Q52.85 9.98 52.85 11.93L52.85 11.93L52.87 16.85Q52.87 16.97 52.75 16.97L52.75 16.97L50.04 16.97Q49.94 16.97 49.94 16.90L49.94 16.90L49.94 11.93Q49.94 11.06 49.33 10.43Q48.72 9.79 47.83 9.79L47.83 9.79L46.25 9.79L46.22 16.85Q46.22 16.97 46.13 16.97L46.13 16.97ZM46.25 3.14L46.25 6.91L48.31 6.91Q49.06 6.91 49.63 6.36Q50.21 5.81 50.21 5.02L50.21 5.02Q50.21 4.25 49.64 3.70Q49.08 3.14 48.31 3.14L48.31 3.14L46.25 3.14ZM62.74 16.97L54.98 16.97Q54.89 16.97 54.89 16.85L54.89 16.85L54.91 0.38Q54.91 0.26 55.03 0.26L55.03 0.26L57.70 0.26Q57.82 0.26 57.82 0.38L57.82 0.38L57.79 14.02L62.74 14.02Q62.86 14.02 62.86 14.14L62.86 14.14L62.86 16.85Q62.86 16.97 62.74 16.97L62.74 16.97ZM68.52 17.21L68.52 17.21Q67.22 17.21 66.16 16.55Q65.09 15.89 64.44 14.80Q63.79 13.70 63.79 12.38L63.79 12.38L63.82 4.78Q63.82 3.46 64.45 2.38Q65.09 1.30 66.17 0.65Q67.25 0 68.52 0L68.52 0Q69.82 0 70.87 0.65Q71.93 1.30 72.56 2.38Q73.20 3.46 73.20 4.78L73.20 4.78L73.22 12.38Q73.22 13.70 72.59 14.80Q71.95 15.89 70.88 16.55Q69.82 17.21 68.52 17.21ZM68.52 14.30L68.52 14.30Q69.24 14.30 69.78 13.72Q70.32 13.13 70.32 12.38L70.32 12.38L70.30 4.78Q70.30 3.98 69.79 3.43Q69.29 2.88 68.52 2.88L68.52 2.88Q67.78 2.88 67.25 3.42Q66.72 3.96 66.72 4.78L66.72 4.78L66.72 12.38Q66.72 13.18 67.25 13.74Q67.78 14.30 68.52 14.30Z" transform="translate(36, 9.516)"></path></svg>